<?xml version="1.0" encoding="UTF-8" standalone="no"?>
<svg
   class="main-svg"
   width="700"
   height="500"
   style=""
   viewBox="0 0 700 500"
   version="1.1"
   id="svg1569"
   sodipodi:docname="wordle.svg"
   inkscape:version="1.1.2 (b8e25be8, 2022-02-05)"
   xmlns:inkscape="http://www.inkscape.org/namespaces/inkscape"
   xmlns:sodipodi="http://sodipodi.sourceforge.net/DTD/sodipodi-0.dtd"
   xmlns="http://www.w3.org/2000/svg"
   xmlns:svg="http://www.w3.org/2000/svg">
  <sodipodi:namedview
     id="namedview1571"
     pagecolor="#ffffff"
     bordercolor="#666666"
     borderopacity="1.0"
     inkscape:pageshadow="2"
     inkscape:pageopacity="0.0"
     inkscape:pagecheckerboard="0"
     showgrid="false"
     inkscape:zoom="1.362"
     inkscape:cx="349.85316"
     inkscape:cy="250"
     inkscape:window-width="1536"
     inkscape:window-height="907"
     inkscape:window-x="0"
     inkscape:window-y="25"
     inkscape:window-maximized="0"
     inkscape:current-layer="svg1569" />
  <rect
     x="0"
     y="0"
     width="700"
     height="500"
     style="fill: rgb(255, 255, 255); fill-opacity: 1;"
     id="rect1361"
     inkscape:export-filename="/Users/edsummers/wordle.png"
     inkscape:export-xdpi="96"
     inkscape:export-ydpi="96" />
  <defs
     id="defs-a74189">
    <marker
       style="overflow:visible;"
       id="Arrow1Lend"
       refX="0.0"
       refY="0.0"
       orient="auto"
       inkscape:stockid="Arrow1Lend"
       inkscape:isstock="true">
      <path
         transform="scale(0.8) rotate(180) translate(12.5,0)"
         style="fill-rule:evenodd;fill:context-stroke;stroke:context-stroke;stroke-width:1.0pt;"
         d="M 0.0,0.0 L 5.0,-5.0 L -12.5,0.0 L 5.0,5.0 L 0.0,0.0 z "
         id="path9915" />
    </marker>
    <marker
       style="overflow:visible;"
       id="Arrow2Lend"
       refX="0.0"
       refY="0.0"
       orient="auto"
       inkscape:stockid="Arrow2Lend"
       inkscape:isstock="true">
      <path
         transform="scale(1.1) rotate(180) translate(1,0)"
         d="M 8.7185878,4.0337352 L -2.2072895,0.016013256 L 8.7185884,-4.0017078 C 6.9730900,-1.6296469 6.9831476,1.6157441 8.7185878,4.0337352 z "
         style="stroke:context-stroke;fill-rule:evenodd;fill:context-stroke;stroke-width:0.62500000;stroke-linejoin:round;"
         id="path9933" />
    </marker>
    <marker
       style="overflow:visible"
       id="marker10182"
       refX="0.0"
       refY="0.0"
       orient="auto"
       inkscape:stockid="Arrow1Lstart"
       inkscape:isstock="true">
      <path
         transform="scale(0.8) translate(12.5,0)"
         style="fill-rule:evenodd;fill:context-stroke;stroke:context-stroke;stroke-width:1.0pt"
         d="M 0.0,0.0 L 5.0,-5.0 L -12.5,0.0 L 5.0,5.0 L 0.0,0.0 z "
         id="path10180" />
    </marker>
    <marker
       style="overflow:visible"
       id="Arrow1Lstart"
       refX="0.0"
       refY="0.0"
       orient="auto"
       inkscape:stockid="Arrow1Lstart"
       inkscape:isstock="true">
      <path
         transform="scale(0.8) translate(12.5,0)"
         style="fill-rule:evenodd;fill:context-stroke;stroke:context-stroke;stroke-width:1.0pt"
         d="M 0.0,0.0 L 5.0,-5.0 L -12.5,0.0 L 5.0,5.0 L 0.0,0.0 z "
         id="path9912" />
    </marker>
    <g
       class="clips"
       id="g1375">
      <clipPath
         id="clipa74189xyplot"
         class="plotclip">
        <rect
           width="540"
           height="320"
           id="rect1363" />
      </clipPath>
      <clipPath
         class="axesclip"
         id="clipa74189x">
        <rect
           x="80"
           y="0"
           width="540"
           height="500"
           id="rect1366" />
      </clipPath>
      <clipPath
         class="axesclip"
         id="clipa74189y">
        <rect
           x="0"
           y="100"
           width="700"
           height="320"
           id="rect1369" />
      </clipPath>
      <clipPath
         class="axesclip"
         id="clipa74189xy">
        <rect
           x="80"
           y="100"
           width="540"
           height="320"
           id="rect1372" />
      </clipPath>
    </g>
    <g
       class="gradients"
       id="g1377" />
    <g
       class="patterns"
       id="g1379" />
  </defs>
  <g
     class="bglayer"
     id="g1384">
    <rect
       class="bg"
       x="80"
       y="100"
       width="540"
       height="320"
       style="fill: rgb(229, 236, 246); fill-opacity: 1; stroke-width: 0;"
       id="rect1382" />
  </g>
  <g
     class="layer-below"
     id="g1390">
    <g
       class="imagelayer"
       id="g1386" />
    <g
       class="shapelayer"
       id="g1388" />
  </g>
  <g
     class="cartesianlayer"
     id="g1524">
    <g
       class="subplot xy"
       id="g1522">
      <g
         class="layer-subplot"
         id="g1396">
        <g
           class="shapelayer"
           id="g1392" />
        <g
           class="imagelayer"
           id="g1394" />
      </g>
      <g
         class="gridlayer"
         id="g1424">
        <g
           class="x"
           id="g1410">
          <path
             class="xgrid crisp"
             transform="translate(161.41,0)"
             d="M0,100v320"
             style="stroke: rgb(255, 255, 255); stroke-opacity: 1; stroke-width: 1px;"
             id="path1398" />
          <path
             class="xgrid crisp"
             transform="translate(242.81,0)"
             d="M0,100v320"
             style="stroke: rgb(255, 255, 255); stroke-opacity: 1; stroke-width: 1px;"
             id="path1400" />
          <path
             class="xgrid crisp"
             transform="translate(326.93,0)"
             d="M0,100v320"
             style="stroke: rgb(255, 255, 255); stroke-opacity: 1; stroke-width: 1px;"
             id="path1402" />
          <path
             class="xgrid crisp"
             transform="translate(411.06,0)"
             d="M0,100v320"
             style="stroke: rgb(255, 255, 255); stroke-opacity: 1; stroke-width: 1px;"
             id="path1404" />
          <path
             class="xgrid crisp"
             transform="translate(487.04,0)"
             d="M0,100v320"
             style="stroke: rgb(255, 255, 255); stroke-opacity: 1; stroke-width: 1px;"
             id="path1406" />
          <path
             class="xgrid crisp"
             transform="translate(571.1600000000001,0)"
             d="M0,100v320"
             style="stroke: rgb(255, 255, 255); stroke-opacity: 1; stroke-width: 1px;"
             id="path1408" />
        </g>
        <g
           class="y"
           id="g1422">
          <path
             class="ygrid crisp"
             transform="translate(0,344.46000000000004)"
             d="M80,0h540"
             style="stroke: rgb(255, 255, 255); stroke-opacity: 1; stroke-width: 1px;"
             id="path1412" />
          <path
             class="ygrid crisp"
             transform="translate(0,284.90999999999997)"
             d="M80,0h540"
             style="stroke: rgb(255, 255, 255); stroke-opacity: 1; stroke-width: 1px;"
             id="path1414" />
          <path
             class="ygrid crisp"
             transform="translate(0,225.36)"
             d="M80,0h540"
             style="stroke: rgb(255, 255, 255); stroke-opacity: 1; stroke-width: 1px;"
             id="path1416" />
          <path
             class="ygrid crisp"
             transform="translate(0,165.81)"
             d="M80,0h540"
             style="stroke: rgb(255, 255, 255); stroke-opacity: 1; stroke-width: 1px;"
             id="path1418" />
          <path
             class="ygrid crisp"
             transform="translate(0,106.26)"
             d="M80,0h540"
             style="stroke: rgb(255, 255, 255); stroke-opacity: 1; stroke-width: 1px;"
             id="path1420" />
        </g>
      </g>
      <g
         class="zerolinelayer"
         id="g1428">
        <path
           class="yzl zl crisp"
           transform="translate(0,404.01)"
           d="M80,0h540"
           style="stroke: rgb(255, 255, 255); stroke-opacity: 1; stroke-width: 2px;"
           id="path1426" />
      </g>
      <path
         class="xlines-below"
         id="path1430" />
      <path
         class="ylines-below"
         id="path1432" />
      <g
         class="overlines-below"
         id="g1434" />
      <g
         class="xaxislayer-below"
         id="g1436" />
      <g
         class="yaxislayer-below"
         id="g1438" />
      <g
         class="overaxes-below"
         id="g1440" />
      <g
         class="plot"
         transform="translate(80,100)"
         clip-path="url(#clipa74189xyplot)"
         id="g1458">
        <g
           class="scatterlayer mlayer"
           id="g1456">
          <g
             class="trace scatter tracecd8e21"
             style="stroke-miterlimit: 2; opacity: 1;"
             id="g1454">
            <g
               class="fills"
               id="g1442" />
            <g
               class="errorbars"
               id="g1444" />
            <g
               class="lines"
               id="g1448">
              <path
                 class="js-line"
                 d="M0,303.93L43.42,304L46.13,303.99L70.55,304L73.27,303.05L75.98,303.97L78.69,303.99L97.69,303.97L100.4,303.97L217.09,303.17L219.8,303.05L222.51,301.96L225.23,302.02L230.65,301.68L233.37,301.05L241.51,296.6L244.22,296.83L246.93,295.88L249.65,292.08L255.08,284.67L257.79,272.1L260.5,265.64L263.22,250.9L265.93,239.92L268.64,244.05L271.36,230.37L274.07,202.29L276.78,209.16L279.5,203.34L284.92,157.78L287.64,150.18L290.35,149.76L293.07,146.16L295.78,101.62L298.49,122.39L301.21,103.29L303.92,119.84L306.63,107.35L309.35,110.83L312.06,94.27L314.77,72.72L317.49,58.12L320.2,72.91L322.91,65.68L325.63,72.33L328.34,44.2L331.06,24.98L333.77,26.84L336.48,16L339.2,32.19L341.91,57.06L344.62,57.88L347.34,63.7L350.05,38.24L352.76,51.11L355.48,55.28L358.19,74.82L363.62,59.11L366.33,65.1L369.05,54.33L371.76,48.81L374.47,32.05L377.19,66.39L379.9,72.31L382.61,57.39L385.33,53.67L388.04,41.01L393.47,81.14L396.18,75.27L401.61,85.54L404.32,77.36L407.04,80L409.75,74.24L412.46,81.87L415.18,96.06L420.6,107.56L423.32,102.59L426.03,106.44L428.74,115.13L431.46,115.34L434.17,133.21L436.88,137.35L439.6,137.61L442.31,129.74L445.03,124.83L447.74,126.12L450.45,142.25L453.17,142.69L455.88,160.26L458.59,166.79L461.31,152.76L464.02,159.33L466.73,157.17L469.45,155.24L472.16,168.4L474.87,175.7L477.59,165.69L480.3,172.52L483.02,172.12L485.73,175.96L488.44,187.42L491.16,180.9L493.87,179.92L496.58,197.32L499.3,193.09L502.01,198.14L504.72,197.55L507.44,198.51L510.15,190.28L512.86,194.4L515.58,200.91L518.29,207.27L521.01,203.65L523.72,201.23L526.43,205.5L529.15,201.44L531.86,214.4L534.57,214.94L537.29,213.3L540,220.82"
                 style="vector-effect: non-scaling-stroke; fill: none; stroke: rgb(99, 110, 250); stroke-opacity: 1; stroke-width: 2px; opacity: 1;"
                 id="path1446" />
            </g>
            <g
               class="points"
               id="g1450" />
            <g
               class="text"
               id="g1452" />
          </g>
        </g>
      </g>
      <g
         class="overplot"
         id="g1460" />
      <path
         class="xlines-above crisp"
         d="M0,0"
         style="fill: none;"
         id="path1462" />
      <path
         class="ylines-above crisp"
         d="M0,0"
         style="fill: none;"
         id="path1464" />
      <g
         class="overlines-above"
         id="g1466" />
      <g
         class="xaxislayer-above"
         id="g1492">
        <g
           class="xtick"
           id="g1470">
          <text
             text-anchor="middle"
             x="0"
             y="433"
             transform="translate(161.41,0)"
             style="font-family: 'Open Sans', verdana, arial, sans-serif; font-size: 12px; fill: rgb(42, 63, 95); fill-opacity: 1; white-space: pre; opacity: 1;"
             id="text1468">Nov 2021</text>
        </g>
        <g
           class="xtick"
           id="g1474">
          <text
             text-anchor="middle"
             x="0"
             y="433"
             style="font-family: 'Open Sans', verdana, arial, sans-serif; font-size: 12px; fill: rgb(42, 63, 95); fill-opacity: 1; white-space: pre; opacity: 1;"
             transform="translate(242.81,0)"
             id="text1472">Dec 2021</text>
        </g>
        <g
           class="xtick"
           id="g1478">
          <text
             text-anchor="middle"
             x="0"
             y="433"
             style="font-family: 'Open Sans', verdana, arial, sans-serif; font-size: 12px; fill: rgb(42, 63, 95); fill-opacity: 1; white-space: pre; opacity: 1;"
             transform="translate(326.93,0)"
             id="text1476">Jan 2022</text>
        </g>
        <g
           class="xtick"
           id="g1482">
          <text
             text-anchor="middle"
             x="0"
             y="433"
             style="font-family: 'Open Sans', verdana, arial, sans-serif; font-size: 12px; fill: rgb(42, 63, 95); fill-opacity: 1; white-space: pre; opacity: 1;"
             transform="translate(411.06,0)"
             id="text1480">Feb 2022</text>
        </g>
        <g
           class="xtick"
           id="g1486">
          <text
             text-anchor="middle"
             x="0"
             y="433"
             style="font-family: 'Open Sans', verdana, arial, sans-serif; font-size: 12px; fill: rgb(42, 63, 95); fill-opacity: 1; white-space: pre; opacity: 1;"
             transform="translate(487.04,0)"
             id="text1484">Mar 2022</text>
        </g>
        <g
           class="xtick"
           id="g1490">
          <text
             text-anchor="middle"
             x="0"
             y="433"
             style="font-family: 'Open Sans', verdana, arial, sans-serif; font-size: 12px; fill: rgb(42, 63, 95); fill-opacity: 1; white-space: pre; opacity: 1;"
             transform="translate(571.1600000000001,0)"
             id="text1488">Apr 2022</text>
        </g>
      </g>
      <g
         class="yaxislayer-above"
         id="g1518">
        <g
           class="ytick"
           id="g1496">
          <text
             text-anchor="end"
             x="79"
             y="4.199999999999999"
             transform="translate(0,404.01)"
             style="font-family: 'Open Sans', verdana, arial, sans-serif; font-size: 12px; fill: rgb(42, 63, 95); fill-opacity: 1; white-space: pre; opacity: 1;"
             id="text1494">0</text>
        </g>
        <g
           class="ytick"
           id="g1500">
          <text
             text-anchor="end"
             x="79"
             y="4.199999999999999"
             style="font-family: 'Open Sans', verdana, arial, sans-serif; font-size: 12px; fill: rgb(42, 63, 95); fill-opacity: 1; white-space: pre; opacity: 1;"
             transform="translate(0,344.46000000000004)"
             id="text1498">100k</text>
        </g>
        <g
           class="ytick"
           id="g1504">
          <text
             text-anchor="end"
             x="79"
             y="4.199999999999999"
             style="font-family: 'Open Sans', verdana, arial, sans-serif; font-size: 12px; fill: rgb(42, 63, 95); fill-opacity: 1; white-space: pre; opacity: 1;"
             transform="translate(0,284.90999999999997)"
             id="text1502">200k</text>
        </g>
        <g
           class="ytick"
           id="g1508">
          <text
             text-anchor="end"
             x="79"
             y="4.199999999999999"
             style="font-family: 'Open Sans', verdana, arial, sans-serif; font-size: 12px; fill: rgb(42, 63, 95); fill-opacity: 1; white-space: pre; opacity: 1;"
             transform="translate(0,225.36)"
             id="text1506">300k</text>
        </g>
        <g
           class="ytick"
           id="g1512">
          <text
             text-anchor="end"
             x="79"
             y="4.199999999999999"
             style="font-family: 'Open Sans', verdana, arial, sans-serif; font-size: 12px; fill: rgb(42, 63, 95); fill-opacity: 1; white-space: pre; opacity: 1;"
             transform="translate(0,165.81)"
             id="text1510">400k</text>
        </g>
        <g
           class="ytick"
           id="g1516">
          <text
             text-anchor="end"
             x="79"
             y="4.199999999999999"
             style="font-family: 'Open Sans', verdana, arial, sans-serif; font-size: 12px; fill: rgb(42, 63, 95); fill-opacity: 1; white-space: pre; opacity: 1;"
             transform="translate(0,106.26)"
             id="text1514">500k</text>
        </g>
      </g>
      <g
         class="overaxes-above"
         id="g1520" />
    </g>
  </g>
  <g
     class="polarlayer"
     id="g1526" />
  <g
     class="smithlayer"
     id="g1528" />
  <g
     class="ternarylayer"
     id="g1530" />
  <g
     class="geolayer"
     id="g1532" />
  <g
     class="funnelarealayer"
     id="g1534" />
  <g
     class="pielayer"
     id="g1536" />
  <g
     class="iciclelayer"
     id="g1538" />
  <g
     class="treemaplayer"
     id="g1540" />
  <g
     class="sunburstlayer"
     id="g1542" />
  <g
     class="glimages"
     id="g1544" />
  <defs
     id="topdefs-a74189">
    <g
       class="clips"
       id="g1546" />
  </defs>
  <g
     class="layer-above"
     id="g1553">
    <g
       class="imagelayer"
       id="g1549" />
    <g
       class="shapelayer"
       id="g1551" />
  </g>
  <g
     class="infolayer"
     id="g1567">
    <g
       class="g-gtitle"
       id="g1557">
      <text
         class="gtitle"
         x="35"
         y="50"
         text-anchor="start"
         dy="0em"
         style="font-family: 'Open Sans', verdana, arial, sans-serif; font-size: 17px; fill: rgb(42, 63, 95); opacity: 1; font-weight: normal; white-space: pre;"
         id="text1555">Worldle Tweets per Day</text>
    </g>
    <g
       class="g-xtitle"
       id="g1561">
      <text
         class="xtitle"
         x="350"
         y="460.3"
         text-anchor="middle"
         style="font-family: 'Open Sans', verdana, arial, sans-serif; font-size: 14px; fill: rgb(42, 63, 95); opacity: 1; font-weight: normal; white-space: pre;"
         id="text1559">Day</text>
    </g>
    <g
       class="g-ytitle"
       id="g1565">
      <text
         class="ytitle"
         transform="rotate(-90,24.200000000000003,260)"
         x="24.200000000000003"
         y="260"
         text-anchor="middle"
         style="font-family: 'Open Sans', verdana, arial, sans-serif; font-size: 14px; fill: rgb(42, 63, 95); opacity: 1; font-weight: normal; white-space: pre;"
         id="text1563">Tweets per Day</text>
    </g>
    <path
       d="m 404.72218,114.62939 c 0,-3.59702 -3.41717,-4.49628 -6.11494,-4.49628 v 0.53955 c 1.61866,0 2.87762,0.53956 2.87762,1.79852 a 1.9041227,1.9041227 0 0 1 -2.15822,1.79851 23.306097,23.306097 0 0 1 -5.93509,-1.43881 23.875759,23.875759 0 0 0 -6.2948,-1.43881 5.8819141,5.8819141 0 0 0 -6.11495,5.75524 4.1685418,4.1685418 0 0 0 2.69777,3.95674 l 0.17985,-0.35971 a 1.895292,1.895292 0 0 1 -1.07911,-1.79851 2.2767928,2.2767928 0 0 1 2.51792,-1.97837 26.574843,26.574843 0 0 1 6.65451,1.61867 50.821923,50.821923 0 0 0 6.6545,1.43881 v 5.57539 l -2.69777,2.33807 v 0.17985 l 2.69777,2.33807 v 7.73361 a 8.3053578,8.3053578 0 0 1 -4.49629,1.07911 8.8651093,8.8651093 0 0 1 -7.0142,-2.87763 l 7.3739,-3.59702 v -12.5896 l -8.99257,3.95673 a 12.023336,12.023336 0 0 1 4.67614,-5.21569 l -0.17985,-0.3597 a 13.437292,13.437292 0 0 0 -10.25153,12.40974 12.624633,12.624633 0 0 0 12.5896,12.5896 11.699909,11.699909 0 0 0 11.87019,-11.69034 h -0.3597 a 12.045511,12.045511 0 0 1 -4.67614,5.57539 v -7.3739 l 2.87762,-2.33807 v -0.17985 l -2.69777,-2.33807 v -5.39554 a 5.1399911,5.1399911 0 0 0 5.39554,-5.2157 z m -15.64707,19.78366 -2.15821,1.07911 a 10.66963,10.66963 0 0 1 -1.97837,-6.83436 12.781086,12.781086 0 0 1 0.53955,-3.77688 l 3.77688,-1.61866 z"
       id="path10422"
       style="stroke-width:1.79851" />
  </g>
</svg>
